<svg xmlns="http://www.w3.org/2000/svg" viewBox="0 0 120 120">
<defs>
<radialGradient id="abr-glow" cx=".5" cy=".5" r=".5"><stop offset="0" stop-color="#cfe2f7" stop-opacity=".6"/><stop offset=".6" stop-color="#a9c9ee" stop-opacity=".18"/><stop offset="1" stop-color="#a9c9ee" stop-opacity="0"/></radialGradient>
<linearGradient id="abr-silk" x1="0" y1="0" x2="1" y2="1"><stop offset="0" stop-color="#eaf4ff"/><stop offset=".45" stop-color="#8fb8ea"/><stop offset="1" stop-color="#3f6fb8"/></linearGradient>
<linearGradient id="abr-silk2" x1="0" y1="0" x2="0" y2="1"><stop offset="0" stop-color="#bcd8f6"/><stop offset="1" stop-color="#4f7fc6"/></linearGradient>
</defs>
<circle cx="60" cy="60" r="58" fill="url(#abr-glow)"/>
<ellipse cx="60" cy="104" rx="30" ry="4" fill="#2b1a10" opacity=".22"/>
<path d="M60 56c-14-20-40-16-40-2 0 12 20 14 40 2z" fill="url(#abr-silk)" stroke="#2f52b0" stroke-width="1.4"/>
<path d="M60 56c14-20 40-16 40-2 0 12-20 14-40 2z" fill="url(#abr-silk)" stroke="#2f52b0" stroke-width="1.4"/>
<path d="M60 56c-6 10-14 26-22 40l10-2 6-10 4 12 8-2z" fill="url(#abr-silk2)" stroke="#2f52b0" stroke-width="1.4" stroke-linejoin="round"/>
<path d="M60 56c6 10 14 26 22 40l-10-2-6-10-4 12-8-2z" fill="url(#abr-silk2)" stroke="#2f52b0" stroke-width="1.4" stroke-linejoin="round"/>
<circle cx="60" cy="56" r="7" fill="url(#abr-silk)" stroke="#2f52b0" stroke-width="1.4"/>
<g fill="none" stroke="#ffffff" stroke-width="1.2" opacity=".85">
<path d="M30 54q4-3 8 0t8 0 8 0"/><path d="M66 54q4-3 8 0t8 0 8 0"/>
<path d="M47 76q3-2 6 0M67 76q3-2 6 0"/>
</g>
<circle cx="35" cy="50" r="1.4" fill="#fff"/><circle cx="85" cy="50" r="1.4" fill="#fff"/>
<path d="M22 24l1.5 3.8 3.8 1.5-3.8 1.5-1.5 3.8-1.5-3.8-3.8-1.5 3.8-1.5z" fill="#fff9e0"/>
<path d="M100 32l1.2 3 3 1.2-3 1.2-1.2 3-1.2-3-3-1.2 3-1.2z" fill="#fff9e0"/>
</svg>
