<svg xmlns="http://www.w3.org/2000/svg" viewBox="0 0 120 120">
<defs>
<radialGradient id="amb-glow" cx=".5" cy=".5" r=".5"><stop offset="0" stop-color="#e2eefc" stop-opacity=".6"/><stop offset=".6" stop-color="#cfe2f7" stop-opacity=".18"/><stop offset="1" stop-color="#cfe2f7" stop-opacity="0"/></radialGradient>
<linearGradient id="amb-g1" x1="0" y1="0" x2="0" y2="1"><stop offset="0" stop-color="#ffffff"/><stop offset=".45" stop-color="#c7d3e6"/><stop offset="1" stop-color="#6b7fa6"/></linearGradient>
<linearGradient id="amb-g2" x1="0" y1="0" x2="0" y2="1"><stop offset="0" stop-color="#fbeec2"/><stop offset=".5" stop-color="#e2ae3d"/><stop offset="1" stop-color="#9a6417"/></linearGradient>
</defs>
<circle cx="60" cy="60" r="58" fill="url(#amb-glow)"/>
<g transform="rotate(-30 60 60)">
<ellipse cx="62" cy="80" rx="46" ry="4" fill="#101a3a" opacity=".22"/>
<path d="M30 78C18 71 12 62 15 54c2-6 10-6 15 0 5-6 13-6 15 0 3 8-3 17-15 24Z" fill="url(#amb-g1)" stroke="#4a5b80" stroke-width="1.3" stroke-linejoin="round"/>
<path d="M30 70c-6-4-9-9-8-13 1-3 5-3 8 1 3-4 7-4 8-1 1 4-2 9-8 13Z" fill="#a8b6cf" stroke="#4a5b80" stroke-width="1" stroke-linejoin="round"/>
<path d="M18 54c3-4 8-3 10 0M32 54c3-4 8-3 10 0" stroke="#fff" stroke-width="2" fill="none" stroke-linecap="round" opacity=".9"/>
<rect x="44" y="59" width="60" height="7" rx="3" fill="url(#amb-g1)" stroke="#4a5b80" stroke-width="1.2"/>
<path d="M86 65h5v9h-5zM96 65h7v12h-7z" fill="url(#amb-g1)" stroke="#4a5b80" stroke-width="1.2" stroke-linejoin="round"/>
<rect x="43" y="55" width="6" height="15" rx="2" fill="url(#amb-g2)" stroke="#7a4d10" stroke-width="1"/>
<rect x="70" y="57" width="4" height="11" rx="1.5" fill="url(#amb-g2)" stroke="#7a4d10" stroke-width="1"/>
<rect x="52" y="60.3" width="30" height="1.8" rx=".9" fill="#fff" opacity=".85"/>
<path d="M30 66l-1-8 4 1" stroke="#25408f" stroke-width="1.3" fill="none" stroke-linecap="round" stroke-linejoin="round"/>
<circle cx="27.5" cy="66" r="1.8" fill="#25408f"/>
</g>
<g fill="none" stroke="#5b8be0" stroke-width="1.8" stroke-linecap="round" stroke-linejoin="round" opacity=".9">
<path d="M84 30v-10l6-2v10"/><circle cx="82" cy="31" r="2.4" fill="#5b8be0"/><circle cx="88" cy="29" r="2.4" fill="#5b8be0"/>
<path d="M98 46V36"/><circle cx="96" cy="47" r="2.2" fill="#5b8be0"/><path d="M98 36c3 1 5 3 4 6" stroke-width="1.5"/>
</g>
<path d="M24 26l1.5 3.8 3.8 1.5-3.8 1.5-1.5 3.8-1.5-3.8-3.8-1.5 3.8-1.5z" fill="#fff"/>
<path d="M100 92l1.2 3 3 1.2-3 1.2-1.2 3-1.2-3-3-1.2 3-1.2z" fill="#fff"/>
<circle cx="30" cy="96" r="1.5" fill="#fff" opacity=".8"/>
</svg>
