<svg xmlns="http://www.w3.org/2000/svg" viewBox="0 0 120 120">
<defs>
<radialGradient id="asf-glow" cx=".5" cy=".5" r=".5"><stop offset="0" stop-color="#e2eefc" stop-opacity=".65"/><stop offset=".6" stop-color="#cfe2f7" stop-opacity=".2"/><stop offset="1" stop-color="#cfe2f7" stop-opacity="0"/></radialGradient>
<linearGradient id="asf-g1" x1="0" y1="0" x2="1" y2="1"><stop offset="0" stop-color="#ffffff"/><stop offset=".4" stop-color="#e4ecf7"/><stop offset=".75" stop-color="#9fb4d4"/><stop offset="1" stop-color="#5f7aa8"/></linearGradient>
<linearGradient id="asf-g2" x1="0" y1="0" x2="0" y2="1"><stop offset="0" stop-color="#fff"/><stop offset="1" stop-color="#8ea6cc"/></linearGradient>
</defs>
<circle cx="60" cy="60" r="58" fill="url(#asf-glow)"/>
<ellipse cx="42" cy="106" rx="20" ry="4" fill="#101a3a" opacity=".22"/>
<path d="M96 12C66 22 30 54 30 96 54 92 82 60 96 12Z" fill="url(#asf-g1)" stroke="#5f7aa8" stroke-width="1.4" stroke-linejoin="round"/>
<path d="M96 12C74 32 60 60 42 90" fill="none" stroke="#fff" stroke-width="2.4" opacity=".9"/>
<path d="M96 12C74 32 60 60 42 90" fill="none" stroke="#5f7aa8" stroke-width=".8" opacity=".5"/>
<path d="M42 90c-4 6-8 10-14 18" stroke="url(#asf-g2)" stroke-width="3.6" fill="none" stroke-linecap="round"/>
<path d="M42 90c-4 6-8 10-14 18" stroke="#5f7aa8" stroke-width="1" fill="none" stroke-linecap="round" opacity=".6"/>
<path d="M40 70l14-8M44 78l16-10M50 58l16-10M58 46l14-8M68 34l12-6M36 86l12-6M46 66l-8 8" stroke="#8ea6cc" stroke-width="1" opacity=".6" stroke-linecap="round"/>
<path d="M36 78l-4 10 7-6zM40 66l-3 8 6-4z" fill="#fff" opacity=".9"/>
<path d="M84 22c-12 12-22 30-30 46" stroke="#fff" stroke-width="1.2" opacity=".55" fill="none"/>
<path d="M22 30l1.6 4 4 1.6-4 1.6-1.6 4-1.6-4-4-1.6 4-1.6z" fill="#fff"/>
<path d="M100 82l1.3 3.2 3.2 1.3-3.2 1.3-1.3 3.2-1.3-3.2-3.2-1.3 3.2-1.3z" fill="#fff"/>
<circle cx="30" cy="56" r="1.5" fill="#fff" opacity=".9"/><circle cx="94" cy="50" r="1.3" fill="#fff" opacity=".8"/>
</svg>
