<svg xmlns="http://www.w3.org/2000/svg" viewBox="0 0 100 80">
<defs>
<linearGradient id="ob-g1" x1="0" y1="0" x2="1" y2="1"><stop offset="0" stop-color="#9a3b3a"/><stop offset=".6" stop-color="#6e2424"/><stop offset="1" stop-color="#3f1212"/></linearGradient>
<linearGradient id="ob-g2" x1="0" y1="0" x2="0" y2="1"><stop offset="0" stop-color="#fbf3dd"/><stop offset="1" stop-color="#d9c08e"/></linearGradient>
<linearGradient id="ob-g3" x1="0" y1="0" x2="1" y2="0"><stop offset="0" stop-color="#3a0f0f"/><stop offset=".5" stop-color="#7e2c2c"/><stop offset="1" stop-color="#3a0f0f"/></linearGradient>
<linearGradient id="ob-g4" x1="0" y1="0" x2="0" y2="1"><stop offset="0" stop-color="#f8e6b0"/><stop offset="1" stop-color="#c98a2a"/></linearGradient>
</defs>
<ellipse cx="52" cy="74" rx="46" ry="4.5" fill="#2b1a10" opacity=".25"/>
<rect x="16" y="13" width="78" height="58" rx="2" fill="url(#ob-g2)" stroke="#a88a55" stroke-width="1"/>
<path d="M18 20h74M18 26h74M18 32h74M18 38h74M18 44h74M18 50h74M18 56h74M18 62h74" stroke="#b79a66" stroke-width=".8" opacity=".8"/>
<rect x="8" y="7" width="78" height="60" rx="3" fill="url(#ob-g1)" stroke="#2e0b0b" stroke-width="1.3"/>
<rect x="8" y="7" width="12" height="60" rx="3" fill="url(#ob-g3)"/>
<path d="M14 11v52" stroke="#e0b25a" stroke-width="1.5" opacity=".6"/>
<rect x="26" y="13" width="54" height="48" rx="1" fill="none" stroke="url(#ob-g4)" stroke-width="1.4"/>
<path d="M53 24l10 13-10 13-10-13z" fill="none" stroke="url(#ob-g4)" stroke-width="1.8"/>
<path d="M53 30l5 7-5 7-5-7z" fill="#e6b445"/>
<path d="M28 15q6 0 6 6M78 15q-6 0-6 6M28 59q6 0 6-6M78 59q-6 0-6-6" stroke="#e6b445" stroke-width="1.3" fill="none"/>
<rect x="80" y="30" width="10" height="14" rx="2" fill="url(#ob-g4)" stroke="#7a4d10" stroke-width="1"/>
<path d="M12 9L82 9" stroke="#fff" stroke-width="1.5" opacity=".18"/>
</svg>
