<svg xmlns="http://www.w3.org/2000/svg" viewBox="0 0 84 104">
<defs>
<linearGradient id="of-g1" x1="0" y1="0" x2="1" y2="1"><stop offset="0" stop-color="#b07a48"/><stop offset=".5" stop-color="#7d4f2a"/><stop offset="1" stop-color="#3f2614"/></linearGradient>
<linearGradient id="of-g2" x1="0" y1="0" x2="0" y2="1"><stop offset="0" stop-color="#fbeed3"/><stop offset="1" stop-color="#d7b785"/></linearGradient>
<radialGradient id="of-g3" cx=".4" cy=".35" r=".7"><stop offset="0" stop-color="#fff5c2"/><stop offset=".6" stop-color="#f0c24e"/><stop offset="1" stop-color="#a86f1e"/></radialGradient>
<linearGradient id="of-g4" x1="0" y1="0" x2="0" y2="1"><stop offset="0" stop-color="#fbeec2"/><stop offset="1" stop-color="#c98a2a"/></linearGradient>
</defs>
<ellipse cx="42" cy="99" rx="32" ry="4.5" fill="#2b1a10" opacity=".25"/>
<rect x="10" y="88" width="64" height="8" rx="3" fill="url(#of-g4)" stroke="#7a4d10" stroke-width="1.2"/>
<path d="M14 24L10 6l16 10h32l16-10-4 18" fill="url(#of-g1)" stroke="#2b1a10" stroke-width="1.3" stroke-linejoin="round"/>
<path d="M42 90c-18 0-30-14-30-36 0-20 12-34 30-34s30 14 30 34c0 22-12 36-30 36Z" fill="url(#of-g1)" stroke="#2b1a10" stroke-width="1.4"/>
<path d="M42 44c-10 0-16 12-16 26 0 10 6 18 16 18s16-8 16-18c0-14-6-26-16-26Z" fill="url(#of-g2)" stroke="#8a5e3c" stroke-width="1"/>
<g fill="none" stroke="#b58b4e" stroke-width="1.2" stroke-linecap="round">
<path d="M30 60q6 5 12 0 6 5 12 0M28 70q7 5 14 0 7 5 14 0M32 80q5 4 10 0 5 4 10 0"/>
</g>
<path d="M12 50c-2 14 2 26 10 34M72 50c2 14-2 26-10 34" stroke="#2b1a10" stroke-width="1.2" fill="none" opacity=".7"/>
<path d="M14 54c2 10 6 20 12 26" stroke="#c99a6a" stroke-width="1.4" fill="none" opacity=".5"/>
<circle cx="29" cy="36" r="12" fill="url(#of-g2)" stroke="#5a3a24" stroke-width="1.2"/>
<circle cx="55" cy="36" r="12" fill="url(#of-g2)" stroke="#5a3a24" stroke-width="1.2"/>
<circle cx="29" cy="36" r="8" fill="url(#of-g3)" stroke="#5a3a24" stroke-width="1"/>
<circle cx="55" cy="36" r="8" fill="url(#of-g3)" stroke="#5a3a24" stroke-width="1"/>
<circle cx="29" cy="36" r="4" fill="#2b1a10"/><circle cx="55" cy="36" r="4" fill="#2b1a10"/>
<circle cx="27.5" cy="34" r="1.5" fill="#fff"/><circle cx="53.5" cy="34" r="1.5" fill="#fff"/>
<path d="M42 40l-5 4 5 8 5-8z" fill="url(#of-g4)" stroke="#7a4d10" stroke-width="1"/>
<path d="M30 88l-4 6M34 88l0 6M50 88l0 6M54 88l4 6" stroke="#c98a2a" stroke-width="2.2" stroke-linecap="round"/>
<path d="M18 16a20 20 0 0 1 8-6" stroke="#fff" stroke-width="2" fill="none" stroke-linecap="round" opacity=".5"/>
<path d="M18 40a26 26 0 0 1 4-10" stroke="#fff" stroke-width="2" fill="none" stroke-linecap="round" opacity=".4"/>
</svg>
